<?xml version="1.0" encoding="UTF-8"?>
<!DOCTYPE svg PUBLIC "-//W3C//DTD SVG 1.1//EN" "http://www.w3.org/Graphics/SVG/1.1/DTD/svg11.dtd">
<svg version="1.1" xmlns="http://www.w3.org/2000/svg" xmlns:xlink="http://www.w3.org/1999/xlink" x="0" y="0" width="500" height="500" viewBox="0, 0, 500, 500">
  <g id="Layer_1">
    <path d="M250,23.448 L57.018,208.129 L169.591,208.129 L169.591,476.552 L330.409,476.552 L330.409,208.129 L442.982,208.129 z" fill="#1ACC00"/>
    <g>
      <path d="M361.029,288.578 L344.366,347.694 C340.795,360.616 356.098,365.661 359.839,353.532 L374.745,299.007 L378.94,299.007 L353.321,394.793 L377.239,394.793 L377.239,466.775 C377.239,479.811 395.376,479.811 395.376,466.775 L395.376,394.793 L401.044,394.793 L401.044,466.775 C401.044,479.811 418.614,479.811 418.614,466.775 L418.614,394.793 L443.213,394.793 L417.027,299.007 L421.788,299.007 L436.695,353.532 C440.379,365.944 455.568,360.616 452.168,347.75 L435.504,288.578 C433.237,281.89 425.189,270.101 411.7,269.535 L384.891,269.535 C370.948,270.101 362.956,281.777 361.029,288.578 z" fill="#000000"/>
      <path d="M418.954,243.576 C418.954,231.9 409.659,222.435 398.21,222.435 C386.761,222.435 377.466,231.9 377.466,243.576 C377.466,255.252 386.761,264.717 398.21,264.717 C409.659,264.717 418.954,255.252 418.954,243.576 z" fill="#000000"/>
    </g>
    <path d="M107.549,264.747 C119.233,264.804 128.705,255.332 128.705,243.591 C128.705,231.907 119.233,222.435 107.549,222.435 C95.865,222.435 86.393,231.907 86.393,243.591 C86.393,255.275 95.865,264.747 107.549,264.747 z" fill="#000000"/>
    <path d="M128.762,269.512 L107.549,269.512 L86.336,269.512 C70.341,269.512 59.905,283.578 59.905,296.964 L59.905,361.397 C59.905,373.875 77.488,373.875 77.488,361.397 L77.488,301.842 L80.891,301.842 L80.891,463.831 C80.891,481.074 104.713,480.507 105.28,463.831 L105.28,370.472 L109.25,370.472 L109.818,370.472 L109.818,463.888 C110.782,481.585 134.207,479.883 134.207,463.831 L134.207,301.842 L137.043,301.842 L137.043,361.397 C137.043,373.875 155.193,373.875 155.193,361.397 L155.193,296.964 C155.193,283.635 144.7,269.512 128.762,269.512 z" fill="#000000"/>
    <g>
      <path d="M263.325,321.35 C263.325,328.709 257.359,334.675 250,334.675 C242.641,334.675 236.675,328.709 236.675,321.35 C236.675,313.991 242.641,308.026 250,308.026 C257.359,308.026 263.325,313.991 263.325,321.35 z" fill="#FFFFFF"/>
      <path d="M296.637,339.162 L203.363,339.162 C199.684,339.162 196.701,342.145 196.701,345.824 C196.701,349.504 199.684,352.487 203.363,352.487 L230.693,352.487 C232.242,352.764 234.357,353.552 235.472,356.443 C236.763,359.79 236.13,365.772 235.323,370.802 L234.275,376.742 C234.27,376.771 234.264,376.799 234.259,376.828 C234.258,376.83 234.258,376.831 234.258,376.834 L225.825,424.655 C225.186,428.279 227.606,431.734 231.229,432.373 C234.854,433.012 238.262,430.592 238.901,426.968 L244.726,393.668 L244.726,393.714 C244.726,393.714 246.461,384.688 249.848,384.688 L250.152,384.688 C253.609,384.688 255.274,393.714 255.274,393.714 L255.274,393.691 L261.099,426.979 C261.738,430.603 265.17,433.017 268.794,432.378 C272.417,431.739 274.826,428.28 274.186,424.657 L265.748,376.833 C265.748,376.831 265.745,376.827 265.744,376.825 C265.739,376.797 265.732,376.765 265.727,376.736 L264.678,370.792 C263.871,365.761 263.237,359.79 264.528,356.443 C265.644,353.552 267.758,352.764 269.307,352.487 L296.637,352.487 C300.316,352.487 303.299,349.504 303.299,345.824 C303.299,342.145 300.316,339.162 296.637,339.162 z" fill="#FFFFFF"/>
    </g>
  </g>
  <g id="Layer_2" display="none">
    <path d="M219.764,250 L219.764,169.37 L280.236,169.37 L280.236,250 L341.717,250 L341.717,129.055 L381.024,129.055 L250,8.11 L118.976,129.055 L158.283,129.055 L158.283,250 z" fill="#000000"/>
    <g>
      <path d="M267.477,248.7 C267.477,254.177 263.037,258.617 257.56,258.617 C252.083,258.617 247.643,254.177 247.643,248.7 C247.643,243.223 252.083,238.783 257.56,238.783 C263.037,238.783 267.477,243.223 267.477,248.7 z" fill="#000000"/>
      <path d="M292.269,261.956 L222.851,261.956 C220.112,261.956 217.892,264.176 217.892,266.915 C217.892,269.653 220.112,271.873 222.851,271.873 L243.191,271.873 C244.343,272.08 245.917,272.666 246.748,274.818 C247.708,277.309 247.237,281.761 246.636,285.505 L245.856,289.925 C245.852,289.946 245.848,289.968 245.844,289.989 C245.844,289.991 245.844,289.992 245.843,289.993 L239.568,325.584 C239.092,328.281 240.893,330.853 243.59,331.328 C246.287,331.804 248.824,330.003 249.299,327.306 L253.634,302.522 L253.634,302.557 C253.634,302.557 254.926,295.839 257.446,295.839 L257.673,295.839 C260.246,295.839 261.485,302.557 261.485,302.557 L261.485,302.54 L265.82,327.314 C266.296,330.011 268.85,331.807 271.547,331.332 C274.244,330.856 276.036,328.282 275.56,325.586 L269.28,289.993 C269.28,289.991 269.278,289.989 269.277,289.987 C269.273,289.966 269.268,289.943 269.264,289.921 L268.484,285.497 C267.883,281.753 267.411,277.309 268.372,274.818 C269.203,272.666 270.776,272.08 271.929,271.873 L292.269,271.873 C295.007,271.873 297.227,269.653 297.227,266.915 C297.227,264.176 295.007,261.956 292.269,261.956 z" fill="#000000"/>
    </g>
    <path d="M220.101,248.576 L245.015,329.206 L305.488,329.772 L280.573,249.142 L342.054,249.718 L379.425,370.663 L418.733,371.031 L325.08,490.749 L156.685,368.577 L195.992,368.945 L158.62,248 z" fill="#000000" fill-opacity="0.368"/>
  </g>
</svg>
